<?xml version="1.0" encoding="utf-8"?>
<!-- Generator: Adobe Illustrator 24.1.1, SVG Export Plug-In . SVG Version: 6.00 Build 0)  -->
<svg version="1.1" id="Layer_1" xmlns="http://www.w3.org/2000/svg" xmlns:xlink="http://www.w3.org/1999/xlink" x="0px" y="0px"
	 viewBox="0 0 2500 2500" style="enable-background:new 0 0 2500 2500;" xml:space="preserve">
<style type="text/css">
	.st0{fill:#004D4D;}
	.st1{fill:#FFFFFF;}
</style>
<g>
	
		<rect x="1216.12" y="1407.78" transform="matrix(0.7071 -0.7071 0.7071 0.7071 -653.2947 1306.1385)" class="st0" width="67.77" height="67.77"/>
	<polygon class="st0" points="1297.92,1345.82 1250,1393.74 1202.08,1345.82 1154.16,1393.74 1106.25,1345.83 1154.17,1297.92 
		1202.09,1249.99 	"/>
	<polygon class="st0" points="1489.59,1249.99 1441.67,1297.92 1393.75,1345.83 1345.84,1393.74 1297.92,1345.82 1345.83,1297.92 
		1393.75,1249.99 1345.83,1202.07 1297.92,1154.17 1250,1106.24 1202.08,1154.17 1154.17,1202.07 1106.25,1249.99 1058.33,1297.92 
		1010.41,1249.99 1058.33,1202.07 1106.25,1154.17 1154.16,1106.24 1202.08,1058.32 1250,1010.42 1297.92,1058.32 1345.84,1106.24 
		1393.75,1154.17 1441.67,1202.07 	"/>
</g>
</svg>
